<svg width="24" height="25" viewBox="0 0 24 25" fill="none" xmlns="http://www.w3.org/2000/svg">
<g clip-path="url(#clip0_393_27743)">
<path d="M23.1141 10.2876C22.5479 8.85041 21.727 7.54468 20.697 6.44279C19.6694 5.33824 18.4518 4.45798 17.1116 3.85079C15.7192 3.21899 14.2437 2.90039 12.7204 2.90039C11.1971 2.90039 9.72166 3.21899 8.32929 3.85079C6.98905 4.45798 5.77141 5.33824 4.74386 6.44279C3.71382 7.54468 2.89294 8.85041 2.32672 10.2876C1.73754 11.7807 1.44043 13.3629 1.44043 14.9964C1.44043 18.5793 2.90834 21.9543 5.46648 24.2601L5.50929 24.2979C5.65532 24.4275 5.83913 24.5004 6.02797 24.5004H19.4154C19.6043 24.5004 19.7881 24.4275 19.9341 24.2979L19.9769 24.2601C22.5325 21.9543 24.0004 18.5793 24.0004 14.9964C24.0004 13.3629 23.7008 11.7807 23.1141 10.2876ZM11.9651 6.14039C11.9651 6.02159 12.0557 5.92439 12.1665 5.92439H13.2744C13.3851 5.92439 13.4758 6.02159 13.4758 6.14039V8.30039C13.4758 8.41919 13.3851 8.51639 13.2744 8.51639H12.1665C12.0557 8.51639 11.9651 8.41919 11.9651 8.30039V6.14039ZM6.62722 15.5904C6.62722 15.7092 6.53657 15.8064 6.42579 15.8064H4.4115C4.30072 15.8064 4.21007 15.7092 4.21007 15.5904V14.4024C4.21007 14.2836 4.30072 14.1864 4.4115 14.1864H6.42579C6.53657 14.1864 6.62722 14.2836 6.62722 14.4024V15.5904ZM8.91091 10.0689L8.12786 10.9086C8.09 10.9488 8.03888 10.9713 7.9856 10.9713C7.93232 10.9713 7.8812 10.9488 7.84334 10.9086L6.41823 9.38039C6.38075 9.33979 6.35972 9.28497 6.35972 9.22784C6.35972 9.17071 6.38075 9.11589 6.41823 9.07529L7.20129 8.23559C7.27934 8.15189 7.40775 8.15189 7.4858 8.23559L8.91091 9.76379C8.98897 9.84749 8.98897 9.98519 8.91091 10.0689ZM16.2404 12.3261L14.1128 14.6076C14.2387 15.1125 14.1178 15.6714 13.7477 16.0683C13.6169 16.2089 13.4614 16.3204 13.2904 16.3965C13.1193 16.4726 12.9359 16.5118 12.7506 16.5118C12.5654 16.5118 12.382 16.4726 12.2109 16.3965C12.0398 16.3204 11.8844 16.2089 11.7536 16.0683C11.6225 15.928 11.5185 15.7613 11.4475 15.5779C11.3765 15.3944 11.34 15.1977 11.34 14.9991C11.34 14.8005 11.3765 14.6038 11.4475 14.4203C11.5185 14.2369 11.6225 14.0702 11.7536 13.9299C11.9284 13.7418 12.1464 13.6066 12.3856 13.5379C12.6248 13.4691 12.8766 13.4693 13.1157 13.5384L15.2433 11.2569C15.3214 11.1732 15.4498 11.1732 15.5278 11.2569L16.2404 12.021C16.3184 12.1047 16.3184 12.2397 16.2404 12.3261ZM17.3231 10.9113L16.54 10.0716C16.5025 10.031 16.4815 9.97617 16.4815 9.91904C16.4815 9.86191 16.5025 9.80709 16.54 9.76649L17.9651 8.23829C18.0432 8.15459 18.1716 8.15459 18.2496 8.23829L19.0327 9.07799C19.1108 9.16169 19.1108 9.29939 19.0327 9.38309L17.6076 10.9113C17.5697 10.9515 17.5186 10.974 17.4653 10.974C17.4121 10.974 17.3609 10.9515 17.3231 10.9113ZM21.1301 15.5904C21.1301 15.7092 21.0394 15.8064 20.9286 15.8064H18.9144C18.8036 15.8064 18.7129 15.7092 18.7129 15.5904V14.4024C18.7129 14.2836 18.8036 14.1864 18.9144 14.1864H20.9286C21.0394 14.1864 21.1301 14.2836 21.1301 14.4024V15.5904Z" fill="white"/>
</g>
<defs>
<clipPath id="clip0_393_27743">
<rect width="24" height="24" fill="white" transform="translate(0 0.5)"/>
</clipPath>
</defs>
</svg>
