<svg width="40" height="32" viewBox="0 0 40 32" fill="none" xmlns="http://www.w3.org/2000/svg">
<path d="M33.4375 2.56241C32.85 1.97491 32.85 1.02491 33.4375 0.443655C34.025 -0.137595 34.975 -0.143845 35.5563 0.443655L39.5563 4.44366C39.8375 4.72491 39.9938 5.10616 39.9938 5.50616C39.9938 5.90616 39.8375 6.28741 39.5563 6.56866L35.5563 10.5687C34.9688 11.1562 34.0188 11.1562 33.4375 10.5687C32.8562 9.98116 32.85 9.03115 33.4375 8.4499L34.875 7.0124L24 6.99991C23.1687 6.99991 22.5 6.33116 22.5 5.49991C22.5 4.66866 23.1687 3.99991 24 3.99991H34.8812L33.4375 2.56241ZM6.5625 23.5624L5.125 24.9999H16C16.8313 24.9999 17.5 25.6687 17.5 26.4999C17.5 27.3312 16.8313 27.9999 16 27.9999H5.11875L6.55625 29.4374C7.14375 30.0249 7.14375 30.9749 6.55625 31.5562C5.96875 32.1374 5.01875 32.1437 4.4375 31.5562L0.4375 27.5624C0.15625 27.2812 0 26.8999 0 26.4999C0 26.0999 0.15625 25.7187 0.4375 25.4374L4.4375 21.4374C5.025 20.8499 5.975 20.8499 6.55625 21.4374C7.1375 22.0249 7.14375 22.9749 6.55625 23.5562L6.5625 23.5624ZM6 3.99991H21.1187C20.8875 4.44991 20.75 4.95616 20.75 5.49991C20.75 7.29366 22.2062 8.74991 24 8.74991H31.3375C31.0875 9.81241 31.375 10.9687 32.2 11.7999C33.4688 13.0687 35.525 13.0687 36.7938 11.7999L38 10.5937V23.9999C38 26.2062 36.2062 27.9999 34 27.9999H18.8813C19.1125 27.5499 19.25 27.0437 19.25 26.4999C19.25 24.7062 17.7938 23.2499 16 23.2499H8.6625C8.9125 22.1874 8.625 21.0312 7.8 20.1999C6.53125 18.9312 4.475 18.9312 3.20625 20.1999L2 21.4062V7.99991C2 5.79366 3.79375 3.99991 6 3.99991ZM10 7.99991H6V11.9999C8.20625 11.9999 10 10.2062 10 7.99991ZM34 19.9999C31.7938 19.9999 30 21.7937 30 23.9999H34V19.9999ZM20 21.9999C21.5913 21.9999 23.1174 21.3678 24.2426 20.2425C25.3679 19.1173 26 17.5912 26 15.9999C26 14.4086 25.3679 12.8825 24.2426 11.7573C23.1174 10.632 21.5913 9.9999 20 9.9999C18.4087 9.9999 16.8826 10.632 15.7574 11.7573C14.6321 12.8825 14 14.4086 14 15.9999C14 17.5912 14.6321 19.1173 15.7574 20.2425C16.8826 21.3678 18.4087 21.9999 20 21.9999Z" fill="white"/>
</svg>
