<svg width="25" height="25" viewBox="0 0 25 25" fill="none" xmlns="http://www.w3.org/2000/svg">
<path d="M11.4207 4.64282H14.4207C14.4207 4.245 14.2626 3.86347 13.9813 3.58216C13.7 3.30086 13.3185 3.14282 12.9207 3.14282C12.5228 3.14282 12.1413 3.30086 11.86 3.58216C11.5787 3.86347 11.4207 4.245 11.4207 4.64282ZM9.92065 4.64282C9.92065 3.84717 10.2367 3.08411 10.7993 2.5215C11.3619 1.95889 12.125 1.64282 12.9207 1.64282C13.7163 1.64282 14.4794 1.95889 15.042 2.5215C15.6046 3.08411 15.9207 3.84717 15.9207 4.64282H21.9207C22.1196 4.64282 22.3103 4.72184 22.451 4.86249C22.5916 5.00314 22.6707 5.19391 22.6707 5.39282C22.6707 5.59173 22.5916 5.7825 22.451 5.92315C22.3103 6.0638 22.1196 6.14282 21.9207 6.14282H21.0747L19.2672 19.3998C19.1446 20.2982 18.7006 21.1218 18.0175 21.718C17.3344 22.3143 16.4584 22.6428 15.5517 22.6428H10.2897C9.38293 22.6428 8.50692 22.3143 7.8238 21.718C7.14069 21.1218 6.69674 20.2982 6.57415 19.3998L4.76665 6.14282H3.92065C3.72174 6.14282 3.53098 6.0638 3.39032 5.92315C3.24967 5.7825 3.17065 5.59173 3.17065 5.39282C3.17065 5.19391 3.24967 5.00314 3.39032 4.86249C3.53098 4.72184 3.72174 4.64282 3.92065 4.64282H9.92065ZM11.4207 9.89282C11.4207 9.69391 11.3416 9.50314 11.201 9.36249C11.0603 9.22184 10.8696 9.14282 10.6707 9.14282C10.4717 9.14282 10.281 9.22184 10.1403 9.36249C9.99967 9.50314 9.92065 9.69391 9.92065 9.89282V17.3928C9.92065 17.5917 9.99967 17.7825 10.1403 17.9232C10.281 18.0638 10.4717 18.1428 10.6707 18.1428C10.8696 18.1428 11.0603 18.0638 11.201 17.9232C11.3416 17.7825 11.4207 17.5917 11.4207 17.3928V9.89282ZM15.1707 9.14282C15.3696 9.14282 15.5603 9.22184 15.701 9.36249C15.8416 9.50314 15.9207 9.69391 15.9207 9.89282V17.3928C15.9207 17.5917 15.8416 17.7825 15.701 17.9232C15.5603 18.0638 15.3696 18.1428 15.1707 18.1428C14.9717 18.1428 14.781 18.0638 14.6403 17.9232C14.4997 17.7825 14.4207 17.5917 14.4207 17.3928V9.89282C14.4207 9.69391 14.4997 9.50314 14.6403 9.36249C14.781 9.22184 14.9717 9.14282 15.1707 9.14282ZM8.06065 19.1973C8.13427 19.7363 8.40062 20.2303 8.81042 20.588C9.22022 20.9456 9.74572 21.1427 10.2897 21.1428H15.5517C16.0958 21.1431 16.6217 20.9462 17.0318 20.5884C17.4419 20.2307 17.7085 19.7365 17.7822 19.1973L19.5612 6.14282H6.28015L8.06065 19.1973Z" fill="#B20003"/>
</svg>
