<svg width="25" height="25" viewBox="0 0 25 25" fill="none" xmlns="http://www.w3.org/2000/svg">
<path d="M12.0159 3.14282H5.01587C4.48544 3.14282 3.97673 3.35354 3.60166 3.72861C3.22658 4.10368 3.01587 4.61239 3.01587 5.14282V19.1428C3.01587 19.6733 3.22658 20.182 3.60166 20.557C3.97673 20.9321 4.48544 21.1428 5.01587 21.1428H19.0159C19.5463 21.1428 20.055 20.9321 20.4301 20.557C20.8052 20.182 21.0159 19.6733 21.0159 19.1428V12.1428" stroke="#006B6B" stroke-width="2" stroke-linecap="round" stroke-linejoin="round"/>
<path d="M18.391 2.7678C18.7888 2.36998 19.3284 2.14648 19.891 2.14648C20.4536 2.14648 20.9931 2.36998 21.391 2.7678C21.7888 3.16563 22.0123 3.7052 22.0123 4.2678C22.0123 4.83041 21.7888 5.36998 21.391 5.7678L12.378 14.7818C12.1405 15.0191 11.8472 15.1927 11.525 15.2868L8.65196 16.1268C8.56591 16.1519 8.4747 16.1534 8.38787 16.1312C8.30104 16.1089 8.22179 16.0637 8.15841 16.0004C8.09503 15.937 8.04985 15.8577 8.02761 15.7709C8.00536 15.6841 8.00687 15.5929 8.03196 15.5068L8.87196 12.6338C8.96649 12.3119 9.1405 12.0189 9.37796 11.7818L18.391 2.7678Z" stroke="#006B6B" stroke-width="2" stroke-linecap="round" stroke-linejoin="round"/>
</svg>
