<!DOCTYPE svg PUBLIC "-//W3C//DTD SVG 1.1//EN" "http://www.w3.org/Graphics/SVG/1.1/DTD/svg11.dtd">
<!-- Uploaded to: SVG Find, www.svgrepo.com, Transformed by: SVG Find Mixer Tools -->
<svg fill="#ffffff" width="800px" height="800px" version="1.1" viewBox="144 144 512 512" xmlns="http://www.w3.org/2000/svg" stroke="#ffffff">
<g id="SVGRepo_bgCarrier" stroke-width="0"/>
<g id="SVGRepo_tracerCarrier" stroke-linecap="round" stroke-linejoin="round"/>
<g id="SVGRepo_iconCarrier"> <g fill-rule="evenodd"> <path d="m237.31 211.07c0-20.289 16.449-36.738 36.738-36.738h188.93c8.6914 0 15.742 7.0508 15.742 15.746s-7.0508 15.742-15.742 15.742h-188.93c-2.8984 0-5.25 2.3516-5.25 5.25v188.93c0 8.6953-7.0469 15.742-15.742 15.742-8.6953 0-15.746-7.0469-15.746-15.742zm351.62 89.215c8.6953 0 15.746 7.0508 15.746 15.746v272.89c0 20.289-16.449 36.738-36.738 36.738h-272.89c-8.6953 0-15.746-7.0508-15.746-15.746 0-8.6953 7.0508-15.742 15.746-15.742h272.89c2.9023 0 5.25-2.3516 5.25-5.25v-272.89c0-8.6953 7.0469-15.746 15.742-15.746z"/> <path d="m201.62 450.38c6.9531-5.2148 16.824-3.8047 22.039 3.1484l62.977 83.969c5.2188 6.957 3.8086 16.824-3.1484 22.043-6.957 5.2188-16.824 3.8086-22.043-3.1484l-62.977-83.969c-5.2148-6.957-3.8047-16.824 3.1523-22.043z"/> <path d="m283.49 450.38c-6.957-5.2148-16.824-3.8047-22.043 3.1484l-62.977 83.969c-5.2148 6.957-3.8047 16.824 3.1484 22.043 6.957 5.2188 16.824 3.8086 22.043-3.1484l62.977-83.969c5.2188-6.957 3.8086-16.824-3.1484-22.043z"/> <path d="m456.95 175.53c5.8828-2.4336 12.656-1.0898 17.156 3.4141l125.95 125.95c4.5039 4.5039 5.8516 11.273 3.4141 17.156-2.4375 5.8828-8.1797 9.7188-14.547 9.7188h-104.96c-20.285 0-36.734-16.445-36.734-36.734v-104.96c0-6.3672 3.8359-12.109 9.7188-14.547zm21.77 52.555v66.953c0 2.8984 2.3477 5.2461 5.2461 5.2461h66.953z"/> <path d="m326.53 447.23c8.6953 0 15.742 7.0508 15.742 15.746v68.223h47.234c8.6953 0 15.742 7.0469 15.742 15.742 0 8.6953-7.0469 15.746-15.742 15.746h-62.977c-8.6953 0-15.746-7.0508-15.746-15.746v-83.965c0-8.6953 7.0508-15.746 15.746-15.746z"/> <path d="m426.24 483.96c0-20.285 16.449-36.734 36.738-36.734h41.98c8.6953 0 15.746 7.0508 15.746 15.746 0 8.6914-7.0508 15.742-15.746 15.742h-41.98c-2.9023 0-5.25 2.3477-5.25 5.2461 0 2.9023 2.3477 5.25 5.25 5.25h20.988c20.289 0 36.738 16.445 36.738 36.734 0 20.289-16.449 36.738-36.738 36.738h-41.98c-8.6953 0-15.746-7.0508-15.746-15.746 0-8.6953 7.0508-15.742 15.746-15.742h41.98c2.9023 0 5.25-2.3477 5.25-5.25 0-2.8984-2.3477-5.2461-5.25-5.2461h-20.988c-20.289 0-36.738-16.449-36.738-36.738z"/> </g> </g>
</svg>