<svg width="25" height="25" viewBox="0 0 25 25" fill="none" xmlns="http://www.w3.org/2000/svg">
<path d="M9.77368 5.14284C9.7742 4.76044 9.85448 4.38234 10.0094 4.03271C10.1643 3.68307 10.3904 3.36959 10.6733 3.11227C10.9562 2.85496 11.2896 2.65948 11.6523 2.53831C12.015 2.41714 12.399 2.37295 12.7798 2.40856C13.1605 2.44417 13.5296 2.55879 13.8636 2.74512C14.1975 2.93144 14.4889 3.18537 14.7192 3.49068C14.9495 3.79598 15.1136 4.14596 15.2009 4.51825C15.2883 4.89055 15.2971 5.27697 15.2267 5.65285C15.8037 5.96785 16.2077 6.33585 16.5167 6.61685C16.6133 6.70618 16.7017 6.78451 16.7817 6.85185C16.9847 7.02085 17.1727 7.14485 17.4157 7.23385C17.6617 7.32385 18.0037 7.39285 18.5237 7.39285C18.7226 7.39285 18.9134 7.47186 19.054 7.61251C19.1947 7.75317 19.2737 7.94393 19.2737 8.14285C19.2737 8.34176 19.1947 8.53252 19.054 8.67317C18.9134 8.81383 18.7226 8.89285 18.5237 8.89285C17.8717 8.89285 17.3467 8.80684 16.8977 8.64184C16.4447 8.47484 16.1077 8.24185 15.8237 8.00684C15.6853 7.89092 15.5496 7.77189 15.4167 7.64985C15.1447 7.40385 14.9087 7.18985 14.5567 6.99384C14.2115 7.37332 13.7671 7.64869 13.2737 7.78885V17.1428C13.2737 18.2388 13.5987 18.9068 13.9917 19.2998C14.3907 19.6988 14.9377 19.8928 15.5237 19.8928C15.7226 19.8928 15.9134 19.9719 16.054 20.1125C16.1947 20.2532 16.2737 20.4439 16.2737 20.6428C16.2737 20.8418 16.1947 21.0325 16.054 21.1732C15.9134 21.3138 15.7226 21.3928 15.5237 21.3928C14.6107 21.3928 13.6577 21.0868 12.9307 20.3608C12.7733 20.2042 12.631 20.0308 12.5037 19.8408C12.4637 19.9028 12.4227 19.9628 12.3807 20.0208C11.7237 20.9258 10.7357 21.3928 9.52368 21.3928C9.32477 21.3928 9.134 21.3138 8.99335 21.1732C8.8527 21.0325 8.77368 20.8418 8.77368 20.6428C8.77368 20.4439 8.8527 20.2532 8.99335 20.1125C9.134 19.9719 9.32477 19.8928 9.52368 19.8928C10.3117 19.8928 10.8237 19.6108 11.1677 19.1388C11.5377 18.6298 11.7737 17.8108 11.7737 16.6428V7.78984C11.2802 7.64969 10.8358 7.37432 10.4907 6.99485C10.1387 7.18985 9.90268 7.40485 9.63068 7.64985C9.50768 7.76185 9.37668 7.87985 9.22368 8.00684C8.93968 8.24285 8.60368 8.47484 8.14968 8.64184C7.70068 8.80684 7.17568 8.89285 6.52368 8.89285C6.32477 8.89285 6.134 8.81383 5.99335 8.67317C5.8527 8.53252 5.77368 8.34176 5.77368 8.14285C5.77368 7.94393 5.8527 7.75317 5.99335 7.61251C6.134 7.47186 6.32477 7.39285 6.52368 7.39285C7.04368 7.39285 7.38568 7.32485 7.63268 7.23285C7.87468 7.14485 8.06268 7.02085 8.26668 6.85285C8.34668 6.78485 8.43502 6.70618 8.53168 6.61685C8.83968 6.33685 9.24368 5.96785 9.82168 5.65285C9.79117 5.48452 9.77511 5.3139 9.77368 5.14284ZM12.5237 3.89284C12.1922 3.89284 11.8742 4.02454 11.6398 4.25896C11.4054 4.49338 11.2737 4.81132 11.2737 5.14284C11.2737 5.47437 11.4054 5.79231 11.6398 6.02673C11.8742 6.26115 12.1922 6.39284 12.5237 6.39284C12.8552 6.39284 13.1731 6.26115 13.4076 6.02673C13.642 5.79231 13.7737 5.47437 13.7737 5.14284C13.7737 4.81132 13.642 4.49338 13.4076 4.25896C13.1731 4.02454 12.8552 3.89284 12.5237 3.89284Z" fill="black"/>
<path d="M7.63368 9.59983L9.49168 13.3928H10.0237C10.2226 13.3928 10.4134 13.4719 10.554 13.6125C10.6947 13.7532 10.7737 13.9439 10.7737 14.1428C10.7737 15.27 10.3259 16.351 9.52889 17.148C8.73186 17.9451 7.65085 18.3928 6.52368 18.3928C5.39651 18.3928 4.31551 17.9451 3.51848 17.148C2.72145 16.351 2.27368 15.27 2.27368 14.1428C2.27368 13.9439 2.3527 13.7532 2.49335 13.6125C2.634 13.4719 2.82477 13.3928 3.02368 13.3928H3.55568L5.41368 9.59983L5.43068 9.56483C5.54059 9.36705 5.70211 9.20281 5.89804 9.08963C6.09396 8.97644 6.31693 8.91856 6.54317 8.92215C6.7694 8.92575 6.99042 8.99068 7.18265 9.11003C7.37488 9.22938 7.53011 9.39866 7.63368 9.59983ZM6.52368 10.7428L5.22568 13.3928H7.82168L6.52368 10.7428ZM21.4917 13.3928L19.6347 9.59983L19.6167 9.56483C19.5067 9.3673 19.3452 9.2033 19.1494 9.09029C18.9536 8.97728 18.7308 8.9195 18.5047 8.92309C18.2787 8.92668 18.0578 8.99151 17.8657 9.11069C17.6735 9.22986 17.5173 9.39891 17.4137 9.59983L15.5557 13.3928H15.0237C14.8248 13.3928 14.634 13.4719 14.4934 13.6125C14.3527 13.7532 14.2737 13.9439 14.2737 14.1428C14.2737 15.27 14.7214 16.351 15.5185 17.148C16.3155 17.9451 17.3965 18.3928 18.5237 18.3928C19.6509 18.3928 20.7319 17.9451 21.5289 17.148C22.3259 16.351 22.7737 15.27 22.7737 14.1428C22.7737 13.9439 22.6947 13.7532 22.554 13.6125C22.4134 13.4719 22.2226 13.3928 22.0237 13.3928H21.4917ZM19.8217 13.3928H17.2267L18.5237 10.7428L19.8217 13.3928Z" fill="black"/>
</svg>
