<!DOCTYPE svg PUBLIC "-//W3C//DTD SVG 1.1//EN" "http://www.w3.org/Graphics/SVG/1.1/DTD/svg11.dtd">
<!-- Uploaded to: SVG Find, www.svgrepo.com, Transformed by: SVG Find Mixer Tools -->
<svg fill="#ffffff" width="800px" height="800px" version="1.1" viewBox="144 144 512 512" xmlns="http://www.w3.org/2000/svg" stroke="#ffffff">
<g id="SVGRepo_bgCarrier" stroke-width="0"/>
<g id="SVGRepo_tracerCarrier" stroke-linecap="round" stroke-linejoin="round"/>
<g id="SVGRepo_iconCarrier"> <g> <path d="m529.48 220.92h-39.285v-10.707c0-3.4648-2.8086-6.2969-6.2969-6.2969-3.4648 0-6.2969 2.832-6.2969 6.2969v10.707h-71.289v-10.707c0-3.4648-2.832-6.2969-6.2969-6.2969-3.4883 0-6.2969 2.832-6.2969 6.2969v10.707h-71.312v-10.707c0-3.4648-2.8086-6.2969-6.2969-6.2969-3.4648 0-6.2969 2.832-6.2969 6.2969v10.707h-39.289c-10.605 0-19.234 8.6406-19.234 19.234v336.66c0 10.629 8.6406 19.258 19.234 19.258l258.96 0.003906c10.605 0 19.234-8.6406 19.234-19.258v-336.65c0.011718-10.605-8.6289-19.246-19.234-19.246zm6.6523 355.89c0 3.6641-2.9727 6.6641-6.6367 6.6641h-258.97c-3.6641 0-6.6367-2.9961-6.6367-6.6641v-336.64c0-3.6641 2.9727-6.6367 6.6367-6.6367h39.285v9.8359c-10.531 2.8086-18.352 12.332-18.352 23.766 0 13.602 11.047 24.648 24.648 24.648 13.602 0 24.676-11.047 24.676-24.648 0-11.438-7.8203-20.957-18.375-23.766l-0.003906-9.8477h71.312v9.8359c-10.551 2.8086-18.398 12.332-18.398 23.766 0 13.602 11.098 24.648 24.699 24.648 13.602 0.003906 24.672-11.043 24.672-24.648 0-11.438-7.8203-20.957-18.375-23.766v-9.8359h71.289v9.8359c-10.555 2.8086-18.375 12.332-18.375 23.766 0 13.602 11.07 24.648 24.676 24.648 13.602 0.003906 24.672-11.043 24.672-24.648 0-11.438-7.8203-20.957-18.375-23.766l-0.003906-9.8359h39.285c3.6641 0 6.6367 2.9727 6.6367 6.6367l0.003907 336.66zm-220.03-305.33c3.4883 0 6.2969-2.8086 6.2969-6.2969v-8.125c3.4023 2.1406 5.7812 5.7578 5.7812 10.062 0 6.6367-5.4141 12.055-12.078 12.055-6.6367 0-12.055-5.4141-12.055-12.055 0-4.3086 2.3789-7.9219 5.7578-10.062v8.125c0 3.4883 2.8203 6.2969 6.2969 6.2969zm83.91 0c3.4648 0 6.2969-2.8086 6.2969-6.2969v-8.125c3.4023 2.1406 5.7812 5.7578 5.7812 10.062 0 6.6367-5.4141 12.055-12.078 12.055-6.6641 0-12.105-5.4023-12.105-12.055 0-4.3086 2.4062-7.9219 5.8047-10.062v8.125c0.003906 3.4883 2.8125 6.2969 6.3008 6.2969zm83.883 0c3.4883 0 6.2969-2.8086 6.2969-6.2969v-8.125c3.4023 2.1406 5.7812 5.7578 5.7812 10.062 0 6.6367-5.4141 12.055-12.078 12.055-6.6641 0-12.078-5.4141-12.078-12.055 0-4.3086 2.3789-7.9219 5.7812-10.062v8.125c0 3.4883 2.8359 6.2969 6.2969 6.2969z"/> <path d="m493.08 334.28h-186.16c-3.4648 0-6.2969 2.8086-6.2969 6.2969 0 3.4648 2.832 6.2969 6.2969 6.2969h186.16c3.4883 0 6.2969-2.832 6.2969-6.2969 0-3.4883-2.8086-6.2969-6.2969-6.2969z"/> <path d="m493.08 388.08h-186.16c-3.4648 0-6.2969 2.832-6.2969 6.2969 0 3.4883 2.832 6.2969 6.2969 6.2969l186.16 0.003907c3.4883 0 6.2969-2.8086 6.2969-6.2969 0-3.4766-2.8086-6.3008-6.2969-6.3008z"/> <path d="m493.08 441.9h-186.16c-3.4648 0-6.2969 2.832-6.2969 6.2969 0 3.4883 2.832 6.2969 6.2969 6.2969l186.16 0.003906c3.4883 0 6.2969-2.8086 6.2969-6.2969 0-3.4648-2.8086-6.3008-6.2969-6.3008z"/> <path d="m493.08 495.73h-186.16c-3.4648 0-6.2969 2.8086-6.2969 6.2969 0 3.4648 2.832 6.2969 6.2969 6.2969l186.16 0.003906c3.4883 0 6.2969-2.832 6.2969-6.2969 0-3.5039-2.8086-6.3008-6.2969-6.3008z"/> </g> </g>
</svg>