<!DOCTYPE svg PUBLIC "-//W3C//DTD SVG 1.1//EN" "http://www.w3.org/Graphics/SVG/1.1/DTD/svg11.dtd">
<!-- Uploaded to: SVG Find, www.svgrepo.com, Transformed by: SVG Find Mixer Tools -->
<svg fill="#ffffff" width="800px" height="800px" version="1.1" viewBox="144 144 512 512" xmlns="http://www.w3.org/2000/svg" stroke="#ffffff">
<g id="SVGRepo_bgCarrier" stroke-width="0"/>
<g id="SVGRepo_tracerCarrier" stroke-linecap="round" stroke-linejoin="round"/>
<g id="SVGRepo_iconCarrier"> <path d="m400 233.74c-16.574 0-30.23 13.656-30.23 30.23v14.012c-52.168 13.414-90.688 60.605-90.688 116.98v90.688h-25.191v20.152h292.21v-20.152h-25.191v-90.688c0-56.371-38.516-103.57-90.688-116.98v-14.012c0-16.574-13.656-30.23-30.23-30.23zm0 20.152c5.7578 0 10.078 4.3203 10.078 10.078v10.547c-3.3047-0.26953-6.7031-0.47266-10.078-0.47266s-6.7734 0.20312-10.078 0.47266v-10.547c0-5.7578 4.3203-10.078 10.078-10.078zm0 40.305c55.996 0 100.76 44.766 100.76 100.76v90.688h-201.52v-90.688c0-55.996 44.766-100.76 100.76-100.76zm-35.266 221.68v15.113c0 19.363 15.902 35.266 35.266 35.266s35.266-15.902 35.266-35.266v-15.113h-20.152v15.113c0 8.5469-6.5664 15.113-15.113 15.113s-15.113-6.5664-15.113-15.113v-15.113z"/> </g>
</svg>