<svg width="25" height="25" viewBox="0 0 25 25" fill="none" xmlns="http://www.w3.org/2000/svg">
<path d="M2.31738 10.1428C2.31738 11.1934 2.52431 12.2337 2.92635 13.2043C3.32838 14.1749 3.91766 15.0568 4.66053 15.7997C5.4034 16.5425 6.28531 17.1318 7.25592 17.5339C8.22652 17.9359 9.26681 18.1428 10.3174 18.1428C11.368 18.1428 12.4082 17.9359 13.3789 17.5339C14.3495 17.1318 15.2314 16.5425 15.9742 15.7997C16.7171 15.0568 17.3064 14.1749 17.7084 13.2043C18.1105 12.2337 18.3174 11.1934 18.3174 10.1428C18.3174 9.09225 18.1105 8.05196 17.7084 7.08135C17.3064 6.11075 16.7171 5.22884 15.9742 4.48597C15.2314 3.7431 14.3495 3.15382 13.3789 2.75179C12.4082 2.34975 11.368 2.14282 10.3174 2.14282C9.26681 2.14282 8.22652 2.34975 7.25592 2.75179C6.28531 3.15382 5.4034 3.7431 4.66053 4.48597C3.91766 5.22884 3.32838 6.11075 2.92635 7.08135C2.52431 8.05196 2.31738 9.09225 2.31738 10.1428Z" stroke="black" stroke-width="2"/>
<path d="M16.3174 16.1428L22.3174 22.1428" stroke="black" stroke-width="2" stroke-linecap="round" stroke-linejoin="round"/>
</svg>
