<!DOCTYPE svg PUBLIC "-//W3C//DTD SVG 1.1//EN" "http://www.w3.org/Graphics/SVG/1.1/DTD/svg11.dtd">
<!-- Uploaded to: SVG Find, www.svgrepo.com, Transformed by: SVG Find Mixer Tools -->
<svg fill="#ffffff" width="800px" height="800px" version="1.1" viewBox="144 144 512 512" xmlns="http://www.w3.org/2000/svg" stroke="#ffffff">
<g id="SVGRepo_bgCarrier" stroke-width="0"/>
<g id="SVGRepo_tracerCarrier" stroke-linecap="round" stroke-linejoin="round"/>
<g id="SVGRepo_iconCarrier"> <path d="m428.34 269.43c-51.906 1.2734-51.898 77.457 0 78.719 52.027-1.5664 52.016-77.164 0-78.719zm11.137 50.492c-3.9961 3.875-9.7422 5.3555-15.113 3.8867s-9.5664-5.6641-11.035-11.035c-1.4688-5.3711 0.011719-11.117 3.8867-15.113 4-3.8516 9.7344-5.3086 15.09-3.8359 5.3516 1.4727 9.5352 5.6562 11.008 11.008 1.4688 5.3555 0.011718 11.09-3.8398 15.09zm146.05 29.879-35.246-90.141c-2.2578-5.8438-6.4453-10.734-11.867-13.863-5.4219-3.1328-11.754-4.3125-17.938-3.3438l-7.9336 1.207h-0.003906c-1.457-5.2969-4.4727-10.031-8.6602-13.586-4.1836-3.5586-9.3438-5.7773-14.805-6.3633l-96.191-10.707 0.003906 0.003906c-14.266-1.6055-28.484 3.3789-38.621 13.539l-152.11 152.11c-8.8047 8.8867-13.746 20.891-13.746 33.398 0 12.512 4.9414 24.516 13.746 33.398l89.523 89.523c7.5156 7.5234 17.359 12.281 27.926 13.492 10.566 1.2109 21.234-1.1914 30.258-6.8203l68.094 39.312v0.003906c10.848 6.2539 23.738 7.9492 35.832 4.707 12.098-3.2383 22.414-11.148 28.68-21.992l99.961-173.05c7.2188-12.422 8.3555-27.457 3.0938-40.824zm-243.75 168.47c-4.4375 4.4141-10.441 6.8906-16.703 6.8906-6.2578 0-12.262-2.4766-16.699-6.8906l-89.52-89.52c-4.4023-4.4453-6.875-10.445-6.875-16.703 0-6.2539 2.4727-12.254 6.875-16.699l152.1-152.11c5.0703-5.0859 12.184-7.5781 19.316-6.7656l96.191 10.707c1.832 0.19141 3.2812 1.6406 3.4766 3.4727l10.715 96.191c0.8125 7.1328-1.6797 14.25-6.7695 19.316zm220.2-139.46-99.965 173.05c-3.1406 5.4102-8.2969 9.3594-14.34 10.98-6.0469 1.6211-12.488 0.77734-17.914-2.3398l-61.383-35.441 142.2-142.2c10.184-10.129 15.172-24.359 13.547-38.629l-8.5898-77.137 8.4961-1.293c1.8164-0.28516 3.5898 0.73437 4.2578 2.4531l35.242 90.133c2.6328 6.6875 2.0625 14.207-1.5469 20.422z"/> </g>
</svg>