<svg width="40" height="36" viewBox="0 0 40 36" fill="none" xmlns="http://www.w3.org/2000/svg">
<path d="M20.0001 6C21.7682 6 23.4639 6.63214 24.7141 7.75736C25.9644 8.88258 26.6667 10.4087 26.6667 12C26.6667 13.5913 25.9644 15.1174 24.7141 16.2426C23.4639 17.3679 21.7682 18 20.0001 18C18.232 18 16.5363 17.3679 15.286 16.2426C14.0358 15.1174 13.3334 13.5913 13.3334 12C13.3334 10.4087 14.0358 8.88258 15.286 7.75736C16.5363 6.63214 18.232 6 20.0001 6ZM20.0001 21C27.3667 21 33.3334 23.685 33.3334 27V30H6.66675V27C6.66675 23.685 12.6334 21 20.0001 21Z" fill="white"/>
</svg>
