<svg width="41" height="36" viewBox="0 0 41 36" fill="none" xmlns="http://www.w3.org/2000/svg">
<path d="M39.3267 20.145H19.27C18.1953 20.0705 17.1312 20.3798 16.308 21.0061C15.4849 21.6325 14.9689 22.5253 14.8717 23.4915L14.87 23.505C14.9184 23.9898 15.0725 24.4614 15.3234 24.8926C15.5744 25.3238 15.9173 25.7063 16.3326 26.0182C16.7479 26.3301 17.2274 26.5653 17.7437 26.7104C18.26 26.8554 18.803 26.9074 19.3417 26.8635L19.3267 26.865H39.3267C39.4526 26.8755 39.5795 26.8632 39.7001 26.829C39.8207 26.7947 39.9324 26.7391 40.0288 26.6655C40.1252 26.5919 40.2043 26.5017 40.2615 26.4002C40.3186 26.2987 40.3527 26.188 40.3617 26.0745V20.9385C40.329 20.719 40.209 20.5176 40.0239 20.3717C39.8388 20.2258 39.6011 20.1452 39.355 20.145H39.325H39.3267ZM19.27 25.602C18.7987 25.602 18.3379 25.4762 17.9459 25.2405C17.554 25.0048 17.2485 24.6698 17.0681 24.2779C16.8877 23.8859 16.8405 23.4546 16.9325 23.0385C17.0245 22.6224 17.2514 22.2402 17.5848 21.9403C17.9181 21.6403 18.3427 21.436 18.8051 21.3532C19.2674 21.2705 19.7466 21.3129 20.1821 21.4753C20.6176 21.6376 20.9898 21.9126 21.2517 22.2653C21.5136 22.618 21.6534 23.0328 21.6534 23.457V23.463C21.6534 24.645 20.5884 25.602 19.2767 25.602H19.27ZM5.4917 0V9.606H7.7717V5.502C8.0017 5.553 8.26837 5.586 8.5417 5.595H8.54837C9.37236 5.59342 10.1621 5.29822 10.7449 4.77397C11.3277 4.24973 11.6562 3.53909 11.6584 2.7975C11.6544 2.55387 11.6175 2.31159 11.5484 2.076L11.5534 2.0985H24.04C23.9796 2.32575 23.945 2.55795 23.9367 2.7915V2.7975C23.9385 3.53909 24.2665 4.24988 24.849 4.77441C25.4314 5.29894 26.221 5.59452 27.045 5.5965C27.325 5.5875 27.5934 5.5545 27.85 5.4975L27.8234 5.502V9.606H30.1584V0H5.4917ZM31.14 8.439H34.0417C33.8237 7.87101 33.4426 7.36505 32.9371 6.97251C32.4316 6.57996 31.8196 6.31482 31.1634 6.204L31.14 6.201V8.439Z" fill="white"/>
<path d="M19.1183 19.026H39.015V13.5705C38.9298 12.7612 38.4948 12.0144 37.8036 11.4912C37.1124 10.9679 36.2205 10.7099 35.32 10.773H35.3317H3.73167C3.70448 10.7469 3.66784 10.7304 3.62833 10.7265C3.40881 10.6343 3.22087 10.4908 3.08422 10.3108C2.94758 10.1308 2.86725 9.92101 2.85167 9.70347V9.70047C2.87911 9.43094 2.99694 9.17529 3.18952 8.96741C3.3821 8.75953 3.64034 8.60924 3.93 8.53647L3.94 8.53497V6.15747C1.76167 6.25047 0 9.04797 0 12.546V33.204C0.0859853 34.0123 0.520852 34.7579 1.21115 35.2807C1.90145 35.8036 2.79208 36.0618 3.69167 36H3.68H35.28C36.1757 36.0595 37.0618 35.8014 37.7491 35.281C38.4363 34.7605 38.8703 34.0189 38.9583 33.2145L38.96 33.2025V27.747H19.1733C15.9617 27.747 13.37 25.788 13.37 23.4105C13.37 20.9865 15.96 19.0275 19.12 19.0275L19.1183 19.026Z" fill="white"/>
</svg>
